<svg width="515" height="209" viewBox="0 0 515 209" fill="none" xmlns="http://www.w3.org/2000/svg">
<path d="M370.834 121.595C370.834 121.595 366.767 134.533 372.786 166.929C373.863 172.743 375.45 178.681 376.255 183.547C386.433 183.547 386.977 194.902 384.816 194.902H372.687C364.943 194.902 355.478 175.993 350.363 149.75C345.249 123.507 370.834 121.595 370.834 121.595ZM295.289 142.592C295.289 142.592 282.129 149.512 282.615 165.738C282.807 172.153 284.058 177.598 284.672 182.889C295.283 182.889 295.324 194.148 292.231 194.148H281.48C276.134 194.148 264.097 176.237 261.908 152.852C259.712 129.473 295.289 142.592 295.289 142.592Z" fill="#F18F26"/>
<path d="M223 42.2371C223 14.321 246.986 0 275.132 0C278.335 0 280.924 2.54092 280.924 5.67169C280.924 8.80247 278.335 11.3434 275.132 11.3434C264.682 11.3434 236.224 16.6407 236.224 42.2371C236.224 58.5772 245.301 73.2159 258.061 76.1651C259.011 75.7511 260.06 75.5753 261.01 75.0762C302.941 52.8602 338.958 80.192 349.205 73.4314C359.353 66.7274 352.327 54.97 365.563 43.6947C367.474 33.2531 371.778 18.3025 375.954 18.3025C379.134 18.3025 383.282 28.6534 386.033 39.0382C389.456 31.2056 393.928 23.4071 396.807 23.4071C400.514 23.4071 404.209 36.2988 406.04 47.4267C415.771 53.9321 422.873 63.3585 422.873 74.4523C422.873 89.7659 399.413 93.4922 391.594 93.7984C383.774 94.1047 374.083 114.001 370.828 122.565C363.634 147.334 358.948 171.903 355.2 185.992C364.752 185.992 365.649 197.965 363.008 197.965C358.878 197.965 351.696 197.948 350.12 197.965C342.121 198.044 338.385 171.274 338.385 147.776C338.385 146.574 338.448 144.22 338.448 144.22C338.448 144.22 327.269 147.084 303.474 143.04C289.317 140.635 274.338 147.855 270.191 160.98C267.138 170.644 262.087 179.725 259.371 186.411C268.575 186.411 268.32 197.965 265.65 197.965C261.091 197.965 255.217 198.044 253.005 197.965C244.501 197.653 249.28 155.007 247.039 140.698C244.797 126.388 239.7 109.061 248.365 90.8038C229.621 80.7422 223 59.5811 223 42.2371Z" fill="#FFCC4E"/>
<path d="M396.807 66.1774C393.928 66.1774 391.594 63.8921 391.594 61.0729C391.594 58.2538 393.928 55.9684 396.807 55.9684C399.686 55.9684 402.02 58.2538 402.02 61.0729C402.02 63.8921 399.686 66.1774 396.807 66.1774Z" fill="#292F33"/>
<path d="M414.241 67.2665C418.163 69.6656 418.163 77.3451 420.121 77.3451C422.079 77.3451 426 72.8304 426 67.2665C426.006 61.7025 409.422 64.3172 414.241 67.2665Z" fill="#E75A70"/>
<path d="M393.425 75.6777C393.662 75.8251 393.946 75.8819 394.248 75.8252C394.352 75.8025 403.214 74.4583 408.989 76.6532C409.736 76.9368 410.964 76.5228 411.381 75.5699C411.798 74.6171 411.248 73.4998 410.501 73.2162C402.16 69.989 393.952 71.889 393.506 71.9797C392.701 72.1442 392.377 73.0574 392.417 74.0896C392.44 74.7362 393.02 75.4225 393.425 75.6777ZM396.159 88.9438C396.437 88.9948 396.721 88.9381 396.976 88.7679C397.063 88.7112 404.685 84.0604 410.889 83.93C411.688 83.913 412.656 83.0566 412.656 81.9959C412.656 80.941 411.7 80.0959 410.895 80.1073C401.905 80.2434 395.116 85.1608 394.74 85.4217C394.062 85.8867 394.137 86.8679 394.583 87.8264C394.867 88.4333 395.678 88.8587 396.159 88.9438Z" fill="#FEE7B8"/>
<path d="M386.033 39.027C386.033 39.027 383.878 38.8058 381.058 39.2142C379.801 36.6052 377.669 34.1834 377.669 34.1834C377.669 34.1834 376.041 37.9721 375.433 40.8703C375.288 41.5509 374.17 41.5339 373.568 41.9423C373.568 41.9423 373.348 22.3012 378.567 20.1857C378.561 20.1743 382.94 26.5607 386.033 39.027ZM406.046 47.4155C406.046 47.4155 403.822 45.9011 400.931 44.1599C399.674 40.6208 397.641 36.5996 397.641 36.5996C397.641 36.5996 395.863 40.0139 395.643 41.1936C394.426 40.5471 394.426 40.5924 393.308 40.116C393.308 40.116 393.969 27.1505 399.674 25.7836C399.674 25.7836 403.914 33.5652 406.046 47.4155Z" fill="#F18F26"/>
<path d="M324.658 128.43C340.003 131.663 338.444 144.208 338.444 144.208C338.444 144.208 327.265 147.073 303.47 143.029C297.289 141.979 290.999 142.859 285.473 145.167C294.781 127.885 310.467 125.435 324.658 128.43Z" fill="#FFDD99"/>
<path d="M346.458 74.3504C343.701 78.1844 332.574 87.7809 330.558 86.5955C328.601 85.4442 327.141 74.9402 328.577 71.248C336.275 73.2841 342.392 74.9799 346.458 74.3504ZM305.773 89.6015C302.164 90.3842 297.044 72.7056 297.605 66.2172C305.999 66.3136 313.708 67.6691 320.572 69.2629C318.632 75.3883 309.26 88.8415 305.773 89.6015ZM290.556 66.4497C290.313 70.5503 284.868 81.2131 283.113 81.9731C281.335 82.7501 273.353 74.4922 272.304 70.2838C278.595 68.1399 284.712 66.8978 290.556 66.4497Z" fill="#F18F26"/>
<path d="M451.722 154.87C449.619 153.44 451.617 152.283 453.044 150.177L488.604 92.331C490.035 90.2282 492.924 89.6732 495.03 91.1038C497.133 92.5345 497.688 95.4236 496.257 97.5295L455.597 151.91C454.167 154.016 453.828 156.301 451.722 154.87ZM456.723 154.744C455.015 152.86 457.228 152.203 459.112 150.495L507.274 102.629C509.158 100.921 512.096 101.063 513.808 102.947C515.516 104.831 515.374 107.769 513.49 109.481L461.181 152.777C459.297 154.488 458.431 156.628 456.723 154.744Z" fill="#FF9B85"/>
<path d="M453.333 201C480.579 201 502.667 178.913 502.667 151.667C502.667 124.421 480.579 102.333 453.333 102.333C426.087 102.333 404 124.421 404 151.667C404 178.913 426.087 201 453.333 201Z" fill="#85B6FF"/>
<path d="M434.332 181.541C425.655 181.541 419.957 180.496 419.535 180.416C417.864 180.098 416.766 178.489 417.081 176.817C417.395 175.143 419.008 174.042 420.679 174.357C420.858 174.394 438.741 177.632 459.467 172.199C480.166 166.772 492.311 155.314 492.431 155.2C493.655 154.022 495.61 154.063 496.791 155.296C497.969 156.526 497.926 158.478 496.695 159.656C496.156 160.171 483.261 172.331 461.034 178.165C450.945 180.807 441.593 181.541 434.332 181.541Z" fill="#B1D0FF"/>
<path d="M429.083 170.811C418.501 170.811 410.756 169.639 410.192 169.553C408.508 169.291 407.358 167.715 407.62 166.032C407.879 164.351 409.449 163.208 411.138 163.457C411.373 163.494 434.858 167.028 455.674 161.567C476.403 156.134 493.744 140.308 493.917 140.15C495.171 138.997 497.12 139.077 498.273 140.329C499.426 141.581 499.349 143.533 498.094 144.686C497.345 145.38 479.437 161.715 457.237 167.537C447.509 170.086 437.418 170.811 429.083 170.811Z" fill="#B1D0FF"/>
<path d="M426.189 158.515C416.618 158.515 409.946 157.442 409.449 157.361C407.772 157.084 406.634 155.499 406.912 153.822C407.186 152.141 408.759 150.976 410.455 151.281C410.661 151.315 431.615 154.651 452.397 149.2C473.096 143.773 488.361 129.334 488.509 129.189C489.733 128.014 491.691 128.051 492.869 129.285C494.047 130.515 494.004 132.467 492.773 133.644C492.107 134.283 476.188 149.342 453.96 155.169C443.967 157.781 434.091 158.515 426.189 158.515Z" fill="#B1D0FF"/>
<path d="M426.949 147.245C425.472 147.245 424.165 146.178 423.912 144.674C420.267 122.995 428.389 112.65 428.734 112.222C429.807 110.899 431.75 110.692 433.073 111.762C434.389 112.829 434.599 114.756 433.547 116.079C433.415 116.252 426.866 125.039 429.992 143.65C430.273 145.327 429.141 146.918 427.461 147.202C427.291 147.233 427.119 147.245 426.949 147.245ZM439.988 146.499C438.444 146.499 437.109 145.337 436.93 143.764C434.062 118.468 441.647 107.769 441.974 107.325C442.982 105.95 444.906 105.651 446.282 106.659C447.647 107.658 447.95 109.573 446.966 110.945C446.843 111.121 440.506 120.568 443.056 143.064C443.248 144.757 442.033 146.283 440.34 146.474C440.223 146.493 440.103 146.499 439.988 146.499ZM453.518 143.064C451.986 143.064 450.657 141.92 450.463 140.363C447.869 119.486 453.833 108.155 454.089 107.683C454.903 106.188 456.771 105.629 458.266 106.437C459.759 107.245 460.32 109.111 459.518 110.606C459.41 110.816 454.264 120.96 456.58 139.605C456.79 141.294 455.59 142.836 453.9 143.046C453.774 143.058 453.648 143.064 453.518 143.064ZM467.846 136.299C466.348 136.299 465.034 135.208 464.803 133.682C462.454 118.299 465.531 110.914 465.663 110.609C466.332 109.043 468.158 108.321 469.712 108.996C471.269 109.666 471.99 111.463 471.334 113.023C471.269 113.19 468.867 119.471 470.893 132.75C471.152 134.434 469.995 136.006 468.312 136.265C468.158 136.29 468.001 136.299 467.846 136.299ZM444.459 196.375C444.074 196.375 443.682 196.304 443.303 196.15C439.501 194.608 436.005 191.149 435.619 190.76C434.42 189.552 434.429 187.606 435.635 186.404C436.84 185.204 438.792 185.21 439.995 186.416C440.806 187.23 443.392 189.533 445.622 190.437C447.2 191.078 447.959 192.875 447.321 194.454C446.833 195.65 445.677 196.375 444.459 196.375ZM462.044 196.856C461.504 196.856 460.955 196.714 460.459 196.415C456.25 193.887 450.993 188.728 450.771 188.513C449.556 187.316 449.544 185.364 450.737 184.153C451.933 182.935 453.885 182.926 455.1 184.116C455.149 184.165 460.058 188.978 463.635 191.127C465.096 192.006 465.568 193.899 464.692 195.358C464.112 196.323 463.092 196.856 462.044 196.856ZM475.394 191.673C474.901 191.673 474.402 191.556 473.933 191.303C470.409 189.407 466.641 185.352 466.221 184.896C465.068 183.644 465.152 181.695 466.406 180.542C467.661 179.398 469.607 179.475 470.763 180.727C471.71 181.757 474.648 184.686 476.862 185.879C478.361 186.687 478.922 188.556 478.111 190.054C477.553 191.084 476.495 191.673 475.394 191.673ZM486.016 183.064C485.545 183.064 485.064 182.956 484.617 182.728C482.754 181.775 480.645 180.132 480.411 179.95C479.073 178.899 478.842 176.959 479.893 175.624C480.944 174.289 482.884 174.052 484.219 175.103C484.728 175.501 486.297 176.663 487.422 177.237C488.939 178.011 489.541 179.87 488.767 181.387C488.218 182.448 487.139 183.064 486.016 183.064ZM413.888 147.769C412.371 147.769 411.048 146.647 410.839 145.099C409.738 136.984 411.899 129.285 413.62 126.087C414.428 124.589 416.299 124.031 417.798 124.836C419.296 125.643 419.854 127.515 419.05 129.013C417.961 131.03 416.019 137.412 416.95 144.27C417.178 145.956 415.997 147.51 414.31 147.739C414.166 147.76 414.027 147.769 413.888 147.769ZM480.587 130.635C479.134 130.635 477.839 129.605 477.562 128.129C476.702 123.596 477.217 118.422 478.169 115.65C478.721 114.041 480.47 113.177 482.088 113.736C483.698 114.291 484.555 116.045 484 117.654C483.423 119.326 482.927 123.325 483.621 126.975C483.938 128.647 482.841 130.262 481.166 130.58C480.969 130.62 480.775 130.635 480.587 130.635Z" fill="#B1D0FF"/>
<line x1="236" y1="194.75" x2="-0.0015564" y2="194.75" stroke="#85B6FF" stroke-width="6"/>
<path d="M234.5 194.5L271.613 205L298.613 198L335.613 205L370.113 198L411.607 205L447.114 198" stroke="#85B6FF" stroke-width="6"/>
</svg>
